<svg width="117" height="26" viewBox="0 0 117 26" fill="none" xmlns="http://www.w3.org/2000/svg">
<path d="M14.1094 2.15625C13.9219 2.61458 13.7552 3.03125 13.6094 3.40625C13.4844 3.78125 13.3698 4.11458 13.2656 4.40625C13.1615 4.73958 13.0677 5.03125 12.9844 5.28125C12.901 5.57292 12.8073 5.90625 12.7031 6.28125C12.599 6.61458 12.4635 7.03125 12.2969 7.53125C12.151 8.01042 11.974 8.58333 11.7656 9.25C11.599 8.25 11.2969 7.45833 10.8594 6.875C10.4219 6.27083 9.97396 5.80208 9.51562 5.46875C8.97396 5.09375 8.39062 4.82292 7.76562 4.65625C6.64062 4.46875 5.82812 4.48958 5.32812 4.71875C4.82812 4.94792 4.49479 5.23958 4.32812 5.59375C4.24479 5.73958 4.15104 5.92708 4.04688 6.15625C3.96354 6.36458 3.89062 6.58333 3.82812 6.8125C3.78646 7.04167 3.77604 7.27083 3.79688 7.5C3.81771 7.72917 3.91146 7.91667 4.07812 8.0625C4.18229 8.16667 4.45312 8.3125 4.89062 8.5C5.32812 8.66667 5.84896 8.86458 6.45312 9.09375C7.07812 9.30208 7.73438 9.53125 8.42188 9.78125C9.13021 10.0312 9.79688 10.2812 10.4219 10.5312C11.0469 10.7812 11.5885 11.0312 12.0469 11.2812C12.5052 11.5312 12.8073 11.7604 12.9531 11.9688C13.0781 12.1771 13.2135 12.4583 13.3594 12.8125C13.526 13.1458 13.6406 13.5208 13.7031 13.9375C13.7865 14.3333 13.8073 14.75 13.7656 15.1875C13.7448 15.6042 13.6302 16.0208 13.4219 16.4375C13.2135 16.8542 12.8802 17.2396 12.4219 17.5938C11.9844 17.9479 11.3906 18.2396 10.6406 18.4688C9.76562 18.7396 8.92188 18.8125 8.10938 18.6875C7.29688 18.5625 6.54688 18.375 5.85938 18.125C5.19271 17.875 4.60938 17.6354 4.10938 17.4062C3.60938 17.1562 3.25521 17.0521 3.04688 17.0938C2.81771 17.1354 2.55729 17.25 2.26562 17.4375C1.97396 17.625 1.69271 17.8229 1.42188 18.0312C1.17188 18.2188 0.953125 18.3958 0.765625 18.5625C0.578125 18.7083 0.484375 18.7604 0.484375 18.7188C0.484375 18.6771 0.515625 18.5521 0.578125 18.3438C0.661458 18.1354 0.744792 17.8854 0.828125 17.5938C0.932292 17.2812 1.02604 16.9479 1.10938 16.5938C1.21354 16.2188 1.28646 15.8646 1.32812 15.5312C1.36979 15.2604 1.42188 14.9271 1.48438 14.5312C1.52604 14.1771 1.57812 13.75 1.64062 13.25C1.72396 12.7292 1.81771 12.1042 1.92188 11.375C2.02604 11.9167 2.17188 12.3854 2.35938 12.7812C2.56771 13.1771 2.76562 13.5208 2.95312 13.8125C3.18229 14.1458 3.40104 14.4271 3.60938 14.6562C3.92188 14.9479 4.28646 15.2188 4.70312 15.4688C5.14062 15.7188 5.57812 15.9375 6.01562 16.125C6.45312 16.2917 6.86979 16.3958 7.26562 16.4375C7.66146 16.4792 7.99479 16.4375 8.26562 16.3125C8.53646 16.1875 8.76562 15.9583 8.95312 15.625C9.16146 15.2917 9.30729 14.9271 9.39062 14.5312C9.47396 14.1354 9.50521 13.7604 9.48438 13.4062C9.46354 13.0312 9.36979 12.7292 9.20312 12.5C9.07812 12.3542 8.78646 12.1667 8.32812 11.9375C7.89062 11.7083 7.35938 11.4583 6.73438 11.1875C6.13021 10.9167 5.48438 10.6354 4.79688 10.3438C4.13021 10.0521 3.49479 9.76042 2.89062 9.46875C2.30729 9.15625 1.81771 8.86458 1.42188 8.59375C1.04688 8.30208 0.838542 8.04167 0.796875 7.8125C0.755208 7.47917 0.723958 7.11458 0.703125 6.71875C0.682292 6.30208 0.703125 5.89583 0.765625 5.5C0.848958 5.08333 0.994792 4.6875 1.20312 4.3125C1.43229 3.9375 1.76562 3.625 2.20312 3.375C2.49479 3.20833 2.88021 3.08333 3.35938 3C3.83854 2.91667 4.36979 2.875 4.95312 2.875C5.53646 2.85417 6.14062 2.875 6.76562 2.9375C7.39062 2.97917 7.98438 3.04167 8.54688 3.125C9.13021 3.1875 9.65104 3.27083 10.1094 3.375C10.5885 3.47917 10.9531 3.57292 11.2031 3.65625C11.4948 3.76042 11.8073 3.77083 12.1406 3.6875C12.4323 3.625 12.7448 3.48958 13.0781 3.28125C13.4115 3.07292 13.7552 2.69792 14.1094 2.15625ZM14.8594 0.3125C15.4844 0.375 16.0052 0.427083 16.4219 0.46875C16.8594 0.510417 17.2135 0.541667 17.4844 0.5625C17.7969 0.583333 18.0469 0.59375 18.2344 0.59375C18.4219 0.614583 18.6719 0.614583 18.9844 0.59375C19.2552 0.572917 19.6094 0.552083 20.0469 0.53125C20.4844 0.489583 21.0365 0.427083 21.7031 0.34375C21.5573 0.552083 21.4427 0.739583 21.3594 0.90625C21.276 1.05208 21.2031 1.1875 21.1406 1.3125L20.9531 1.6875C20.9115 1.8125 20.8698 1.9375 20.8281 2.0625C20.7865 2.16667 20.7448 2.29167 20.7031 2.4375C20.6823 2.58333 20.6615 2.73958 20.6406 2.90625H25.4531L25.0156 5.4375L20.6094 5.1875C20.5052 6.25 20.4323 7.07292 20.3906 7.65625C20.349 8.23958 20.3073 8.66667 20.2656 8.9375L20.2031 9.5C20.1406 10.2917 20.0781 11.1562 20.0156 12.0938C19.9531 13.0104 19.9323 13.8646 19.9531 14.6562C19.974 15.4479 20.0469 16.1146 20.1719 16.6562C20.2969 17.1771 20.5156 17.4375 20.8281 17.4375C21.1406 17.4375 21.4323 17.3542 21.7031 17.1875C21.974 17.0208 22.2031 16.8229 22.3906 16.5938C22.599 16.3646 22.7552 16.1354 22.8594 15.9062C22.9635 15.6562 23.0156 15.4688 23.0156 15.3438C23.0156 15.2188 22.9844 15.0729 22.9219 14.9062C22.8177 14.5938 22.6302 14.1979 22.3594 13.7188C22.9635 13.8646 23.4948 14.0104 23.9531 14.1562C24.1823 14.2396 24.3906 14.3229 24.5781 14.4062C24.7865 14.4896 25.026 14.5833 25.2969 14.6875C25.526 14.7917 25.8177 14.9167 26.1719 15.0625C26.526 15.2083 26.9427 15.3854 27.4219 15.5938C26.9635 15.6771 26.6302 15.8125 26.4219 16C26.2969 16.0833 26.2031 16.1771 26.1406 16.2812C25.9948 16.5104 25.8281 16.8229 25.6406 17.2188C25.4531 17.5938 25.1719 17.9688 24.7969 18.3438C24.4219 18.7188 23.9115 19.0521 23.2656 19.3438C22.6406 19.6354 21.7969 19.8021 20.7344 19.8438C19.6302 19.8854 18.7865 19.6979 18.2031 19.2812C17.6406 18.8646 17.224 18.3854 16.9531 17.8438C16.7031 17.2812 16.5573 16.7292 16.5156 16.1875C16.474 15.6458 16.4427 15.2812 16.4219 15.0938C16.401 14.9062 16.401 14.4375 16.4219 13.6875C16.4427 12.9375 16.474 12.1146 16.5156 11.2188C16.5573 10.3021 16.599 9.42708 16.6406 8.59375C16.6823 7.73958 16.7031 7.11458 16.7031 6.71875C16.7031 6.51042 16.7135 6.29167 16.7344 6.0625C16.7344 5.875 16.7344 5.67708 16.7344 5.46875C16.7552 5.23958 16.7656 5.02083 16.7656 4.8125L12.2344 4.78125L12.0469 3L16.6094 3.125C16.5677 2.89583 16.5156 2.6875 16.4531 2.5C16.4115 2.29167 16.3698 2.125 16.3281 2C16.2656 1.85417 16.2031 1.72917 16.1406 1.625C16.0573 1.52083 15.9635 1.40625 15.8594 1.28125C15.7552 1.17708 15.6198 1.04167 15.4531 0.875C15.2865 0.708333 15.0885 0.520833 14.8594 0.3125ZM28.4844 7.34375C28.5885 7.21875 28.651 6.98958 28.6719 6.65625C28.7135 6.30208 28.7969 5.90625 28.9219 5.46875C29.0677 5.03125 29.3073 4.57292 29.6406 4.09375C29.974 3.61458 30.5156 3.16667 31.2656 2.75C31.9948 2.33333 32.7031 2.08333 33.3906 2C34.0781 1.91667 34.7344 1.94792 35.3594 2.09375C35.9844 2.23958 36.5677 2.46875 37.1094 2.78125C37.6719 3.09375 38.1823 3.4375 38.6406 3.8125C38.9531 4.0625 39.2031 4.42708 39.3906 4.90625C39.5781 5.36458 39.724 5.88542 39.8281 6.46875C39.9323 7.05208 40.0052 7.66667 40.0469 8.3125C40.1094 8.9375 40.151 9.55208 40.1719 10.1562C40.1927 10.7396 40.2031 11.2812 40.2031 11.7812C40.224 12.2604 40.2656 12.6562 40.3281 12.9688C40.4115 13.4271 40.5573 13.8229 40.7656 14.1562C40.974 14.4688 41.2031 14.7396 41.4531 14.9688C41.7031 15.1771 41.9531 15.3438 42.2031 15.4688C42.4531 15.5938 42.6719 15.6875 42.8594 15.75C42.9844 15.8125 43.099 15.8542 43.2031 15.875C43.4115 15.9583 43.5573 15.9583 43.6406 15.875C43.5156 16.1667 43.401 16.4167 43.2969 16.625C43.1927 16.8333 43.1094 17.0104 43.0469 17.1562C42.9635 17.3229 42.8906 17.4583 42.8281 17.5625C42.7656 17.6875 42.6927 17.8021 42.6094 17.9062C42.5469 18.0104 42.4635 18.125 42.3594 18.25C42.2552 18.375 42.151 18.5104 42.0469 18.6562C41.776 18.5521 41.5156 18.4271 41.2656 18.2812C41.0365 18.1354 40.8281 18 40.6406 17.875C40.4115 17.7292 40.2031 17.5833 40.0156 17.4375C39.8281 17.2917 39.651 17.125 39.4844 16.9375C39.3385 16.7708 39.1823 16.5938 39.0156 16.4062C38.8698 16.2188 38.7448 16.0104 38.6406 15.7812C38.5156 16.0521 38.2135 16.4375 37.7344 16.9375C37.276 17.4375 36.6719 17.8958 35.9219 18.3125C35.1719 18.7083 34.2969 18.9896 33.2969 19.1562C32.3177 19.3229 31.2344 19.2083 30.0469 18.8125C29.526 18.6458 29.0365 18.4062 28.5781 18.0938C28.1198 17.7604 27.724 17.3646 27.3906 16.9062C27.0781 16.4479 26.849 15.9271 26.7031 15.3438C26.5781 14.7396 26.5885 14.0729 26.7344 13.3438C26.8802 12.6146 27.1406 12 27.5156 11.5C27.8906 11 28.3385 10.5938 28.8594 10.2812C29.3802 9.96875 29.9635 9.72917 30.6094 9.5625C31.2552 9.39583 31.9219 9.28125 32.6094 9.21875C33.151 9.19792 33.6927 9.22917 34.2344 9.3125C34.6927 9.39583 35.1719 9.55208 35.6719 9.78125C36.1719 9.98958 36.599 10.3125 36.9531 10.75C36.9323 9.64583 36.8906 8.77083 36.8281 8.125C36.7865 7.45833 36.7448 6.94792 36.7031 6.59375C36.6198 6.17708 36.5469 5.88542 36.4844 5.71875C36.3802 5.57292 36.2656 5.40625 36.1406 5.21875C36.0365 5.03125 35.901 4.86458 35.7344 4.71875C35.5677 4.55208 35.3594 4.41667 35.1094 4.3125C34.8594 4.20833 34.5677 4.16667 34.2344 4.1875C33.8802 4.20833 33.599 4.30208 33.3906 4.46875C33.1823 4.63542 33.0156 4.83333 32.8906 5.0625C32.7865 5.27083 32.724 5.5 32.7031 5.75C32.6823 6 32.6927 6.21875 32.7344 6.40625C32.776 6.53125 32.8385 6.66667 32.9219 6.8125C33.0052 6.9375 33.1198 7.07292 33.2656 7.21875C33.4115 7.36458 33.6094 7.48958 33.8594 7.59375C33.3802 7.65625 32.9531 7.70833 32.5781 7.75C32.2031 7.77083 31.8802 7.80208 31.6094 7.84375C31.2969 7.88542 31.026 7.91667 30.7969 7.9375C30.5677 7.95833 30.2969 8 29.9844 8.0625C29.7135 8.10417 29.3802 8.15625 28.9844 8.21875C28.5885 8.28125 28.1302 8.36458 27.6094 8.46875C27.7344 8.32292 27.849 8.1875 27.9531 8.0625C28.0573 7.91667 28.151 7.79167 28.2344 7.6875C28.3177 7.5625 28.401 7.44792 28.4844 7.34375ZM33.1719 11.0625C32.7969 11.0833 32.4219 11.1771 32.0469 11.3438C31.6719 11.4896 31.3385 11.7083 31.0469 12C30.7552 12.2708 30.5052 12.5938 30.2969 12.9688C30.1094 13.3229 30.0156 13.7188 30.0156 14.1562C30.0156 14.5938 30.1198 14.9792 30.3281 15.3125C30.5573 15.625 30.849 15.8854 31.2031 16.0938C31.5781 16.3021 31.974 16.4271 32.3906 16.4688C32.8281 16.5104 33.2552 16.4688 33.6719 16.3438C34.0677 16.1979 34.4427 15.9688 34.7969 15.6562C35.151 15.3229 35.4531 14.9688 35.7031 14.5938C35.9531 14.1979 36.1302 13.8125 36.2344 13.4375C36.3385 13.0417 36.349 12.7188 36.2656 12.4688C36.099 11.9271 35.724 11.5521 35.1406 11.3438C34.5573 11.1146 33.901 11.0208 33.1719 11.0625ZM43.0156 5.03125C43.4115 5.05208 43.7656 5.0625 44.0781 5.0625C44.4115 5.04167 44.6927 5.02083 44.9219 5C45.1927 4.97917 45.4323 4.95833 45.6406 4.9375C45.9531 4.89583 46.276 4.84375 46.6094 4.78125C46.901 4.73958 47.2031 4.6875 47.5156 4.625C47.849 4.54167 48.1719 4.44792 48.4844 4.34375C48.3594 4.65625 48.2552 4.92708 48.1719 5.15625C48.0885 5.38542 48.026 5.58333 47.9844 5.75C47.9219 5.9375 47.8906 6.09375 47.8906 6.21875C47.8698 6.36458 47.8594 6.54167 47.8594 6.75C47.8385 7.10417 47.8385 7.67708 47.8594 8.46875C48.9427 7.53125 49.849 6.80208 50.5781 6.28125C51.3281 5.76042 51.9219 5.35417 52.3594 5.0625C52.8802 4.72917 53.2865 4.51042 53.5781 4.40625C54.349 4.28125 55.026 4.45833 55.6094 4.9375C55.8594 5.14583 56.099 5.42708 56.3281 5.78125C56.5573 6.11458 56.7552 6.5625 56.9219 7.125C57.0885 7.6875 57.2135 8.36458 57.2969 9.15625C57.3802 9.92708 57.3906 10.8542 57.3281 11.9375C56.8906 11.9792 56.4948 12.0208 56.1406 12.0625C55.8073 12.1042 55.526 12.1354 55.2969 12.1562C55.026 12.1979 54.776 12.2188 54.5469 12.2188L53.7031 12.3125C53.4115 12.3542 53.0469 12.3958 52.6094 12.4375C52.1927 12.4583 51.6823 12.5 51.0781 12.5625C51.9531 11.8542 52.5156 11.2396 52.7656 10.7188C53.0365 10.1771 53.151 9.72917 53.1094 9.375C53.0677 8.97917 52.8802 8.63542 52.5469 8.34375C52.151 8.11458 51.724 8.03125 51.2656 8.09375C50.8698 8.13542 50.4115 8.3125 49.8906 8.625C49.3698 8.9375 48.8177 9.52083 48.2344 10.375C48.276 11.7083 48.3177 12.8125 48.3594 13.6875C48.4219 14.5625 48.474 15.2708 48.5156 15.8125C48.5781 16.4375 48.6302 16.9271 48.6719 17.2812C48.7344 17.5938 48.8594 17.9271 49.0469 18.2812C49.1927 18.5729 49.401 18.8958 49.6719 19.25C49.9427 19.6042 50.2969 19.9583 50.7344 20.3125C49.8177 20.2708 49.0677 20.2708 48.4844 20.3125C48.1302 20.3333 47.8177 20.3542 47.5469 20.375C47.2552 20.4167 46.9427 20.4583 46.6094 20.5C46.3177 20.5417 45.974 20.5833 45.5781 20.625C45.2031 20.6875 44.7865 20.75 44.3281 20.8125C44.4948 20.5833 44.6302 20.3125 44.7344 20C44.8385 19.7083 44.9219 19.4271 44.9844 19.1562C45.0677 18.8438 45.1302 18.5208 45.1719 18.1875C45.1927 17.8958 45.2031 17.4583 45.2031 16.875C45.224 16.2917 45.2135 15.6354 45.1719 14.9062C45.151 14.1562 45.1198 13.3854 45.0781 12.5938C45.0365 11.7812 44.9844 11.0208 44.9219 10.3125C44.8594 9.60417 44.7865 8.98958 44.7031 8.46875C44.6406 7.92708 44.5677 7.55208 44.4844 7.34375C44.3802 7.09375 44.2552 6.84375 44.1094 6.59375C43.9844 6.36458 43.8281 6.125 43.6406 5.875C43.4531 5.60417 43.2448 5.32292 43.0156 5.03125ZM58.2656 0.3125C58.8906 0.375 59.4115 0.427083 59.8281 0.46875C60.2656 0.510417 60.6198 0.541667 60.8906 0.5625C61.2031 0.583333 61.4531 0.59375 61.6406 0.59375C61.8281 0.614583 62.0781 0.614583 62.3906 0.59375C62.6615 0.572917 63.0156 0.552083 63.4531 0.53125C63.8906 0.489583 64.4427 0.427083 65.1094 0.34375C64.9635 0.552083 64.849 0.739583 64.7656 0.90625C64.6823 1.05208 64.6094 1.1875 64.5469 1.3125L64.3594 1.6875C64.3177 1.8125 64.276 1.9375 64.2344 2.0625C64.1927 2.16667 64.151 2.29167 64.1094 2.4375C64.0885 2.58333 64.0677 2.73958 64.0469 2.90625H68.8594L68.4219 5.4375L64.0156 5.1875C63.9115 6.25 63.8385 7.07292 63.7969 7.65625C63.7552 8.23958 63.7135 8.66667 63.6719 8.9375L63.6094 9.5C63.5469 10.2917 63.4844 11.1562 63.4219 12.0938C63.3594 13.0104 63.3385 13.8646 63.3594 14.6562C63.3802 15.4479 63.4531 16.1146 63.5781 16.6562C63.7031 17.1771 63.9219 17.4375 64.2344 17.4375C64.5469 17.4375 64.8385 17.3542 65.1094 17.1875C65.3802 17.0208 65.6094 16.8229 65.7969 16.5938C66.0052 16.3646 66.1615 16.1354 66.2656 15.9062C66.3698 15.6562 66.4219 15.4688 66.4219 15.3438C66.4219 15.2188 66.3906 15.0729 66.3281 14.9062C66.224 14.5938 66.0365 14.1979 65.7656 13.7188C66.3698 13.8646 66.901 14.0104 67.3594 14.1562C67.5885 14.2396 67.7969 14.3229 67.9844 14.4062C68.1927 14.4896 68.4323 14.5833 68.7031 14.6875C68.9323 14.7917 69.224 14.9167 69.5781 15.0625C69.9323 15.2083 70.349 15.3854 70.8281 15.5938C70.3698 15.6771 70.0365 15.8125 69.8281 16C69.7031 16.0833 69.6094 16.1771 69.5469 16.2812C69.401 16.5104 69.2344 16.8229 69.0469 17.2188C68.8594 17.5938 68.5781 17.9688 68.2031 18.3438C67.8281 18.7188 67.3177 19.0521 66.6719 19.3438C66.0469 19.6354 65.2031 19.8021 64.1406 19.8438C63.0365 19.8854 62.1927 19.6979 61.6094 19.2812C61.0469 18.8646 60.6302 18.3854 60.3594 17.8438C60.1094 17.2812 59.9635 16.7292 59.9219 16.1875C59.8802 15.6458 59.849 15.2812 59.8281 15.0938C59.8073 14.9062 59.8073 14.4375 59.8281 13.6875C59.849 12.9375 59.8802 12.1146 59.9219 11.2188C59.9635 10.3021 60.0052 9.42708 60.0469 8.59375C60.0885 7.73958 60.1094 7.11458 60.1094 6.71875C60.1094 6.51042 60.1198 6.29167 60.1406 6.0625C60.1406 5.875 60.1406 5.67708 60.1406 5.46875C60.1615 5.23958 60.1719 5.02083 60.1719 4.8125L55.6406 4.78125L55.4531 3L60.0156 3.125C59.974 2.89583 59.9219 2.6875 59.8594 2.5C59.8177 2.29167 59.776 2.125 59.7344 2C59.6719 1.85417 59.6094 1.72917 59.5469 1.625C59.4635 1.52083 59.3698 1.40625 59.2656 1.28125C59.1615 1.17708 59.026 1.04167 58.8594 0.875C58.6927 0.708333 58.4948 0.520833 58.2656 0.3125ZM79.9531 5.625C80.4948 5.72917 80.9635 5.8125 81.3594 5.875C81.776 5.91667 82.1302 5.95833 82.4219 6C82.7552 6.04167 83.0469 6.07292 83.2969 6.09375C83.5469 6.11458 83.8385 6.13542 84.1719 6.15625C84.7344 6.17708 85.526 6.17708 86.5469 6.15625C85.9427 6.11458 85.4635 6.27083 85.1094 6.625C84.776 6.95833 84.526 7.34375 84.3594 7.78125C84.151 8.30208 84.0365 8.90625 84.0156 9.59375C83.974 10.5104 83.9948 11.3438 84.0781 12.0938C84.1823 12.8229 84.3594 13.4479 84.6094 13.9688C84.8802 14.4688 85.2344 14.8438 85.6719 15.0938C86.1094 15.3229 86.6719 15.3854 87.3594 15.2812C88.0469 15.1771 88.5677 14.9375 88.9219 14.5625C89.2969 14.1667 89.5677 13.6875 89.7344 13.125C89.901 12.5417 89.9948 11.8854 90.0156 11.1562C90.0573 10.4271 90.0885 9.66667 90.1094 8.875C90.1094 8.08333 90.099 7.52083 90.0781 7.1875C90.0781 6.83333 90.0677 6.60417 90.0469 6.5C90.026 6.39583 89.9948 6.35417 89.9531 6.375C89.9115 6.375 89.8594 6.32292 89.7969 6.21875C89.7552 6.13542 89.6927 6.05208 89.6094 5.96875C89.5469 5.88542 89.4635 5.79167 89.3594 5.6875C89.2552 5.5625 89.1406 5.4375 89.0156 5.3125C89.5573 5.33333 90.0365 5.35417 90.4531 5.375C90.8906 5.375 91.2552 5.38542 91.5469 5.40625C91.8802 5.42708 92.1719 5.44792 92.4219 5.46875C92.651 5.48958 92.9531 5.52083 93.3281 5.5625C93.6406 5.60417 94.0469 5.64583 94.5469 5.6875C95.0469 5.72917 95.6406 5.79167 96.3281 5.875C95.849 5.97917 95.4635 6.13542 95.1719 6.34375C94.8802 6.55208 94.651 6.76042 94.4844 6.96875C94.2969 7.19792 94.1615 7.44792 94.0781 7.71875C94.0156 8.07292 94.0156 8.61458 94.0781 9.34375C94.1198 9.98958 94.224 10.875 94.3906 12C94.5573 13.125 94.8177 14.6042 95.1719 16.4375L92.7031 17.9062L92.2031 13.75C91.599 14.7708 90.9531 15.5625 90.2656 16.125C89.599 16.6667 88.974 17.0625 88.3906 17.3125C87.7031 17.6042 87.0365 17.7708 86.3906 17.8125C85.5365 17.8125 84.7969 17.7604 84.1719 17.6562C83.5677 17.5312 83.0469 17.375 82.6094 17.1875C82.1719 17 81.8177 16.7917 81.5469 16.5625C81.2969 16.3125 81.1094 16.0625 80.9844 15.8125C80.6927 15.2917 80.5365 14.625 80.5156 13.8125C80.4948 12.9792 80.526 12.1562 80.6094 11.3438C80.6927 10.5104 80.7865 9.75 80.8906 9.0625C80.9948 8.375 81.026 7.90625 80.9844 7.65625C80.9427 7.46875 80.8802 7.26042 80.7969 7.03125C80.7135 6.84375 80.6094 6.63542 80.4844 6.40625C80.3594 6.15625 80.1823 5.89583 79.9531 5.625ZM95.8594 5.4375C96.526 5.33333 97.0677 5.25 97.4844 5.1875C97.9219 5.10417 98.276 5.04167 98.5469 5C98.8594 4.9375 99.099 4.88542 99.2656 4.84375C99.4323 4.80208 99.6719 4.73958 99.9844 4.65625C100.255 4.57292 100.609 4.47917 101.047 4.375C101.484 4.25 102.036 4.08333 102.703 3.875C102.536 4.08333 102.401 4.27083 102.297 4.4375C102.214 4.58333 102.13 4.70833 102.047 4.8125C101.964 4.9375 101.891 5.05208 101.828 5.15625C101.766 5.26042 101.703 5.41667 101.641 5.625C101.599 5.79167 101.547 6.03125 101.484 6.34375C101.422 6.63542 101.37 7.02083 101.328 7.5C102.453 6.79167 103.484 6.26042 104.422 5.90625C105.38 5.55208 106.214 5.30208 106.922 5.15625C107.755 4.98958 108.505 4.92708 109.172 4.96875C110.005 5.03125 110.776 5.21875 111.484 5.53125C112.214 5.82292 112.87 6.17708 113.453 6.59375C114.036 7.01042 114.547 7.46875 114.984 7.96875C115.422 8.46875 115.766 8.96875 116.016 9.46875C116.182 9.80208 116.286 10.2812 116.328 10.9062C116.391 11.5312 116.328 12.1979 116.141 12.9062C115.953 13.6146 115.62 14.3125 115.141 15C114.682 15.6667 114.026 16.1979 113.172 16.5938C111.693 17.2604 110.224 17.6354 108.766 17.7188C108.141 17.7604 107.495 17.7396 106.828 17.6562C106.182 17.5729 105.526 17.3958 104.859 17.125C104.214 16.8542 103.589 16.4688 102.984 15.9688C102.38 15.4479 101.828 14.7812 101.328 13.9688C101.161 15.0312 101.036 15.9583 100.953 16.75C100.891 17.5208 100.849 18.1667 100.828 18.6875C100.807 19.2917 100.807 19.8021 100.828 20.2188C100.87 20.6354 100.953 21.0833 101.078 21.5625C101.182 21.9792 101.328 22.4583 101.516 23C101.724 23.5625 101.984 24.1458 102.297 24.75C102.172 24.7083 101.995 24.6771 101.766 24.6562C101.557 24.6562 101.339 24.6771 101.109 24.7188C100.859 24.7604 100.578 24.8021 100.266 24.8438C99.974 24.9062 99.651 24.9792 99.2969 25.0625C99.0052 25.125 98.6615 25.1979 98.2656 25.2812C97.8906 25.3854 97.5052 25.5 97.1094 25.625C97.3385 25.3542 97.5156 25.0417 97.6406 24.6875C97.7865 24.3542 97.901 24.0417 97.9844 23.75C98.0677 23.3958 98.1406 23.0417 98.2031 22.6875C98.224 22.375 98.2552 21.7812 98.2969 20.9062C98.3594 20.0521 98.4115 19.0625 98.4531 17.9375C98.4948 16.7917 98.526 15.5938 98.5469 14.3438C98.5885 13.0938 98.6094 11.9375 98.6094 10.875C98.6302 9.79167 98.6302 8.875 98.6094 8.125C98.5885 7.375 98.5469 6.9375 98.4844 6.8125C98.401 6.66667 98.2448 6.51042 98.0156 6.34375C97.8281 6.19792 97.5573 6.05208 97.2031 5.90625C96.8698 5.76042 96.4219 5.60417 95.8594 5.4375ZM103.297 11.125C103.151 11.6042 103.12 12.0729 103.203 12.5312C103.286 12.9896 103.495 13.4167 103.828 13.8125C104.182 14.2083 104.672 14.5625 105.297 14.875C105.943 15.1667 106.745 15.3854 107.703 15.5312C108.661 15.6771 109.391 15.6562 109.891 15.4688C110.391 15.2812 110.755 14.9896 110.984 14.5938C111.234 14.1771 111.401 13.6979 111.484 13.1562C111.568 12.5938 111.672 12.0104 111.797 11.4062C111.922 10.8229 111.901 10.2292 111.734 9.625C111.568 9 111.328 8.4375 111.016 7.9375C110.724 7.4375 110.391 7.03125 110.016 6.71875C109.661 6.38542 109.349 6.21875 109.078 6.21875C108.432 6.21875 107.797 6.38542 107.172 6.71875C106.547 7.05208 105.974 7.46875 105.453 7.96875C104.932 8.46875 104.474 9.01042 104.078 9.59375C103.703 10.1562 103.443 10.6667 103.297 11.125Z" fill="black"/>
</svg>
